<?xml version="1.0" standalone="no"?>
<!DOCTYPE svg PUBLIC "-//W3C//DTD SVG 20010904//EN"
 "http://www.w3.org/TR/2001/REC-SVG-20010904/DTD/svg10.dtd">
<svg version="1.0" xmlns="http://www.w3.org/2000/svg"
 width="70.000000pt" height="70.000000pt" viewBox="0 0 70.000000 70.000000"
 preserveAspectRatio="xMidYMid meet">
<metadata>
Created by potrace 1.11, written by Peter Selinger 2001-2013
</metadata>
<g transform="translate(0.000000,70.000000) scale(0.100000,-0.100000)"
fill="#000000" stroke="none">
<path d="M243 693 c-13 -2 -23 -8 -23 -13 0 -5 -13 -11 -29 -15 -16 -3 -32
-13 -35 -21 -3 -8 -10 -14 -16 -14 -15 0 -64 -50 -73 -72 -3 -10 -11 -18 -16
-18 -5 0 -12 -12 -16 -27 -3 -15 -12 -31 -18 -35 -16 -10 -17 -246 -1 -256 6
-4 15 -18 19 -31 9 -28 17 -39 67 -89 45 -46 65 -62 75 -62 4 -1 26 -9 48 -20
56 -27 194 -27 250 0 22 11 46 19 53 20 6 0 12 5 12 10 0 6 8 14 18 17 22 9
72 58 72 73 0 6 6 13 14 16 8 3 17 17 21 32 4 15 12 30 18 34 16 10 17 246 1
256 -6 4 -15 18 -19 31 -9 28 -17 39 -67 89 -50 50 -61 58 -89 67 -13 4 -27
13 -31 19 -7 11 -193 19 -235 9z m12 -276 c0 -137 2 -154 20 -174 15 -18 30
-23 65 -23 75 0 75 -1 78 185 l3 165 40 0 c21 0 39 -4 39 -10 0 -5 -4 -10 -9
-10 -6 0 -11 -73 -13 -168 l-3 -168 -28 -26 c-36 -33 -91 -43 -161 -28 -42 9
-57 16 -62 33 -4 12 -11 25 -16 28 -6 4 -13 84 -16 178 l-5 171 34 0 34 0 0
-153z"/>
</g>
</svg>
